<svg width="522" height="411" viewBox="0 0 522 411" fill="none" xmlns="http://www.w3.org/2000/svg">
<path fill-rule="evenodd" clip-rule="evenodd" d="M332.851 1.85748C319.417 4.00286 300.842 12.0667 285.792 22.2898L270.566 32.6291L260.526 46.0716C249.317 61.0809 242.867 72.94 237.245 88.8739L233.458 99.6091L237.755 110.012C240.119 115.737 244.108 122.729 246.621 125.558L251.189 130.696V153.664V176.635L230.914 178.539L210.637 180.447L208.943 178.753L207.251 177.058L210.022 169.498L212.796 161.941L202.44 152.178L192.087 142.414L190.166 134.184C189.109 129.658 186.495 123.15 184.358 119.726L180.472 113.497H172.591H164.709L163.267 100.705L161.825 87.9133L154.603 81.2142L147.38 74.5179V69.4326V64.3474L143.17 60.8539L138.962 57.3604L116.18 58.8026L93.3999 60.2449L76.3144 67.2125C66.9191 71.0437 53.4655 78.1442 46.4176 82.9942L33.6063 91.8082L21.833 106.806L10.0625 121.805L5.03263 135.793L0 149.78L1.22079 173.856L2.44157 197.928L8.77804 210.183C12.266 216.921 21.1852 228.852 28.6013 236.694L42.0853 250.951L58.0552 258.929L74.0223 266.904L91.3238 282.043C111.784 299.946 111.673 299.522 97.5357 305.897C91.4373 308.646 82.0945 315.124 76.774 320.292L67.1018 329.685V336.154V342.623L74.2134 347.282L81.3249 351.941L99.8194 355.664C109.99 357.713 137.545 360.86 161.047 362.662C184.549 364.462 206.609 367.011 210.07 368.326L216.359 370.718L221.768 381.212C224.744 386.981 229.768 394.447 232.935 397.797L238.696 403.89L249.093 406.78L259.493 409.667L305.568 409.681L351.642 409.697L380.31 406.849C421.335 402.774 469.809 393.977 490.186 386.907L507.729 380.822L514.408 374.629C522.838 366.82 522.813 362.341 514.286 352.207L507.482 344.121L491.033 336.738L474.585 329.355L443.165 321.552C425.883 317.258 407.555 311.561 402.431 308.89L393.116 304.034L395.513 301.637C396.831 300.319 408.859 296.687 422.243 293.568C435.625 290.445 451.489 285.385 457.494 282.323L468.414 276.751L472.807 270.046L477.201 263.339L476.309 255.637L475.415 247.936L466.368 241.86L457.322 235.784L438.686 232.813C428.435 231.177 410.395 229.096 398.597 228.182C373.381 226.23 372.728 225.098 391.543 215.927L405.731 209.012L417.476 197.596L429.222 186.18L437.74 171.292L446.257 156.405L450.811 135.978L455.368 115.554L453.718 99.9911C451.556 79.5643 444.63 59.5528 434.65 44.8951L426.584 33.0388L412.759 22.1126L398.935 11.1864L380.828 5.59182L362.718 0L351.246 0.376483C344.935 0.5841 336.658 1.25124 332.851 1.85748ZM496.116 359.753L499.014 365.173L494.065 367.822C487.537 371.316 461.114 375.881 435.276 377.982L414.514 379.67L403.992 377.373L393.47 375.075L392.919 372.318L392.368 369.558L420.051 367.864L447.733 366.173L460.19 360.312L472.647 354.455L482.931 354.394L493.215 354.333L496.116 359.753ZM363.02 369.738C368.072 374.79 348.284 378.347 341.156 373.669L337.004 370.942L341.156 368.099L345.308 365.256L353.411 366.743C357.868 367.562 362.192 368.91 363.02 369.738Z" fill="#E7E7E7"/>
<path fill-rule="evenodd" clip-rule="evenodd" d="M331.727 2.87338L318.149 5.20147L300.84 13.7221L283.53 22.2427L267.657 39.3863L251.787 56.5299L243.878 73.2472L235.969 89.9673L235.966 97.7183L235.963 105.467L240.462 114.328C242.937 119.2 246.361 124.938 248.074 127.078L251.189 130.967V153.753V176.538L229.469 179.068L207.75 181.601L209.441 171.029L211.13 160.46L201.441 151.951L191.749 143.441L188.671 131.931C186.98 125.597 184.317 118.862 182.758 116.957L179.921 113.497H172.319H164.718L163.192 102.114L161.664 90.7341L154.522 83.2793L147.38 75.8244V70.299C147.38 67.2623 145.885 63.2816 144.058 61.4546L140.736 58.1327L126.757 58.1742C119.07 58.1964 104.797 60.0954 95.0413 62.3958L77.3053 66.5758L60.588 75.4867L43.8679 84.3976L30.8434 97.4221L17.8189 110.447L9.93224 126.505L2.04834 142.564L2.11754 168.862L2.18952 195.16L8.69209 208.392C12.2686 215.67 20.5373 227.57 27.0731 234.837L38.9516 248.05L58.7361 258.226L78.5178 268.402L93.5714 282.769C111.869 300.231 111.856 300.006 95.1438 308.474L81.6653 315.306L74.3821 323.96C66.0027 333.917 65.3604 338.357 71.4228 344.417L75.7468 348.741L90.1084 352.844L104.473 356.946L134.923 359.662C151.671 361.154 175.251 363.186 187.323 364.174L209.272 365.97L216.389 373.6C220.304 377.796 226.02 385.45 229.09 390.605L234.676 399.981L242.931 404.114L251.189 408.25L291.328 409.263L331.467 410.276L370.222 406.998C453.712 399.934 506.07 386.533 517.334 369.342L521.935 362.322L516.404 354.867L510.873 347.412L495.911 339.988C487.684 335.905 470.986 329.845 458.806 326.518C446.625 323.193 428.283 317.98 418.043 314.933L399.427 309.391L396.41 305.756L393.395 302.121L398.417 299.494C401.179 298.049 413.805 294.65 426.473 291.94L449.502 287.012L461.781 278.877L474.061 270.743L475.78 263.889L477.502 257.038L474.643 250.76L471.78 244.481L461.344 239.529L450.908 234.577L428.56 232.022C416.266 230.615 398.735 228.542 389.6 227.412L372.991 225.361L389.644 216.777L406.301 208.19L419.583 193.989L432.867 179.788L440.876 162.558L448.881 145.332L451.716 127.291L454.554 109.251L451.688 91.3044L448.826 73.3579L442.271 58.9742L435.719 44.5878L422.904 31.7737L410.088 18.9595L392.925 11.1144L375.759 3.26648L360.534 1.90451L345.308 0.542542L331.727 2.87338ZM332.652 32.5266C335.924 35.1924 340.143 40.4853 342.025 44.2916L345.444 51.2121L369.323 52.5963L393.199 53.9804L398.898 59.1514L404.595 64.3197L409.072 77.7954L413.548 91.2739L421.645 97.0373L429.739 102.801L429.651 112.993L429.562 123.186L425.498 128.559L421.434 133.932V148.449V162.965L418.472 170.758C416.845 175.043 410.478 185.222 404.321 193.377L393.129 208.204L381.677 213.112L370.222 218.02L341.361 218.225L312.502 218.43L305.374 214.374C301.454 212.143 293.266 208.669 287.176 206.651L276.103 202.986L265.5 182.531L254.898 162.08L256.504 154.398C257.387 150.173 258.829 143.267 259.712 139.051L261.315 131.385L254.436 123.964C250.652 119.881 246.15 112.279 244.429 107.067L241.303 97.591L247.155 82.7062C250.375 74.5206 254.973 65.6429 257.373 62.9771L261.736 58.1327H268.047C271.518 58.1327 277.553 56.9175 281.459 55.4337L288.56 52.7347V48.5297V44.3276L300.048 36.0035L311.536 27.6822H319.118H326.7L332.652 32.5266ZM139.075 71.8769C139.075 73.3469 142.813 78.8058 147.38 84.0073L155.685 93.4663V100.534C155.685 104.42 156.867 110.712 158.315 114.516L160.942 121.431L169.866 122.308L178.788 123.186L182.67 134.879L186.551 146.575L194.894 155.508L203.24 164.441L202.302 190.504L201.361 216.567L195.824 220.439C192.779 222.568 184.682 228.373 177.831 233.339L165.374 242.369L160.618 251.823C158.002 257.024 153.96 262.342 151.638 263.643L147.413 266.007L138.035 264.246C125.553 261.905 112.83 253.907 106.698 244.548L101.704 236.924V218.812L101.702 200.696L92.3783 187.265L83.0549 173.831L84.4197 161.725L85.7844 149.617L76.4416 140L67.1016 130.381V124.598C67.1016 101.242 103.678 70.5565 132.847 69.4437L139.075 69.2056V71.8769ZM259.933 190.315C262.53 194.501 267.776 201.355 271.588 205.541L278.522 213.153H282.957C285.393 213.153 292.324 215.894 298.356 219.246L309.321 225.336L331.467 225.738L353.613 226.142L371.606 230.449C381.503 232.822 400.188 235.601 413.13 236.631C426.071 237.663 441.643 239.764 447.733 241.301L458.806 244.099L465.034 249.871C473.109 257.354 472.887 260.39 463.611 269.276L455.96 276.607L444.228 280.748C437.775 283.023 424.745 286.29 415.272 288.009C405.8 289.725 395.837 292.316 393.132 293.764L388.216 296.394V301.634V306.872L395.117 312.3L402.021 317.729L424.875 323.647C437.446 326.905 457.87 332.749 470.26 336.641L492.788 343.711L502.953 350.618L513.115 357.525L512.26 363.543L511.402 369.558L498.383 376.016L485.364 382.477L453.377 388.972L421.39 395.466L370.892 400.155L320.394 404.845L287.176 403.56L253.957 402.276L245.146 397.708L236.337 393.138L229.112 379.864C225.14 372.564 219.459 365.074 216.489 363.219L211.091 359.85L161.936 355.675C109.187 351.199 88.7685 347.708 78.8195 341.469L72.544 337.535L75.5558 331.907L78.5676 326.28L91.5202 318.307C121.785 299.677 121.536 300.336 104.373 284.36L91.8136 272.67L123.059 273.614C140.241 274.135 154.436 274.757 154.602 274.998C154.769 275.242 155.674 278.647 156.612 282.569L158.317 289.703L148.51 294.379L138.702 299.057L139.582 304.964L140.46 310.869L147.38 315.962L154.301 321.059L176.447 327.027L198.592 332.995L235.963 333.283L273.334 333.571L288.784 328.785L304.233 323.999L311.32 317.432C315.215 313.823 322.775 308.167 328.118 304.865L337.829 298.863L342.463 287.281L347.097 275.699L345.339 266.328L343.581 256.958L331.581 244.955L319.578 232.952L304.222 225.929L288.867 218.906L270.364 215.683L251.864 212.461L234.258 214.266C224.578 215.257 214.839 216.766 212.619 217.618L208.58 219.169L209.123 203.775L209.665 188.38L222.122 186.75C228.974 185.853 236.448 184.721 238.732 184.231C241.015 183.744 245.658 183.201 249.049 183.024L255.214 182.703L259.933 190.315ZM301.017 232.464L317.626 239.917L328.007 251.457L338.388 262.998V273.849V284.704L331.221 293.219L324.054 301.737H318.827H313.601L308.884 294.539L304.17 287.342L307.436 275.123C309.236 268.402 310.705 260.623 310.705 257.835V252.767L305.454 248.014L300.203 243.263L284 241.672C275.089 240.797 265.619 238.961 262.954 237.594L258.109 235.105V231.188V227.269L262.937 224.567L267.765 221.868L276.086 223.44C280.662 224.304 291.882 228.365 301.017 232.464ZM244.268 229.857L248.42 232.636L242.884 236.86L237.348 241.082L227.872 240.268L218.399 239.451L217.414 236.448L216.431 233.447L222.737 230.408C230.784 226.529 238.981 226.322 244.268 229.857Z" fill="#BEBEBE"/>
<path fill-rule="evenodd" clip-rule="evenodd" d="M316.834 7.84229L302.201 13.0576L286.733 23.7125L271.264 34.3647L260.847 48.3248C248.586 64.7542 240.152 80.9816 237.511 93.2254L235.612 102.02L240.265 111.219C242.823 116.279 247.404 123.142 250.447 126.472L255.978 132.526L252.617 146.533L249.256 160.538L252.083 168.646L254.909 176.754L244.744 178.196C239.152 178.991 228.561 180.422 221.203 181.377L207.827 183.11L208.611 172.294L209.391 161.482L199.403 151.494L189.416 141.506L187.456 132.346C186.379 127.308 184.242 121.63 182.708 119.726L179.921 116.265H172.253H164.582L162.902 111.886C161.977 109.478 161.221 103.814 161.221 99.2961V91.0884L154.492 84.8515L147.762 78.6147L145.836 70.9384L143.912 63.2649L137.34 60.768L130.768 58.2683L109.32 60.9894L87.8716 63.7078L67.8546 73.2139L47.8348 82.72L33.9134 95.7417L19.9948 108.763L11.0202 126.998L2.04834 145.232L2.17845 168.812L2.30855 192.392L9.81045 207.927L17.3123 223.462L32.0725 237.42L46.8327 251.38L63.1957 259.906L79.5587 268.429L94.5126 281.991L109.467 295.552L107.792 299.915L106.117 304.28L92.3395 311.262L78.5593 318.243L74.216 324.447C71.8242 327.86 69.8699 333.455 69.8699 336.885V343.119L78.2437 347.448C89.9395 353.497 108.437 356.486 161.451 360.896L207.354 364.716L213.358 367.927L219.362 371.141L226.131 384.495L232.896 397.852L242.795 402.55L252.695 407.247L281.008 408.834L309.321 410.422L352.229 407.15C428.109 401.365 482.452 391.222 505.492 378.552L516.938 372.254L517.788 364.938L518.641 357.619L510.868 350.388L503.097 343.157L482.335 335.213C470.917 330.844 452.297 325.192 440.962 322.65C429.626 320.112 414.364 315.459 407.051 312.311L393.752 306.592V302.891V299.19L404.133 296.369C409.844 294.816 422.569 291.608 432.419 289.238C453.543 284.158 464.403 278.292 472.301 267.698L478.07 259.958L473.934 252.473L469.801 244.988L459.935 240.143L450.069 235.299L419.834 232.298C403.206 230.648 385.24 228.403 379.911 227.307L370.222 225.314L390.345 214.712L410.467 204.107L421.49 190.941L432.513 177.775L441.507 158.785L450.501 139.795V109.345V78.8943L443.082 63.0656L435.663 47.2369L423.09 33.7944L410.514 20.3519L394.522 12.4403L378.527 4.53149L354.997 3.57922L331.467 2.62695L316.834 7.84229ZM382.361 12.3462C388.659 14.5663 399.477 20.2799 406.397 25.044L418.982 33.7003L427.037 44.823C431.469 50.9408 437.681 62.8608 440.845 71.3122L446.592 86.6758L446.642 108.548L446.689 130.422L441.914 144.797C437.676 157.562 422.603 185.471 419.948 185.471C419.392 185.471 421.321 180.178 424.233 173.706L429.532 161.941L427.968 152.003L426.406 142.068L432.225 130.66L438.044 119.255V112.232V105.209L428.117 94.2192L418.19 83.2321L413.462 70.0194L408.737 56.8067L399.167 50.2737L389.6 43.7379L372.204 45.3047L354.806 46.8687L350.435 41.742C348.029 38.9239 343.199 33.4096 339.694 29.4926L333.327 22.3699L326.169 20.5734L319.01 18.7768L311.398 20.6758L303.785 22.5748L290.628 36.2L277.47 49.828H271.399H265.329L274.868 39.9039C285.44 28.9057 303.118 17.6861 318.578 12.1635L328.699 8.54818L349.804 8.42638L370.912 8.30458L382.361 12.3462ZM330.174 29.1133L338.294 33.3127L342.463 41.3738L346.631 49.4349L352.226 51.2121L357.823 52.9865L372.326 51.1927L386.832 49.3989L396.252 55.8405L405.669 62.285L409.271 74.6036L412.872 86.9222L422.691 95.9161L432.507 104.91V111.321C432.507 114.848 429.894 122.61 426.697 128.573L420.886 139.413L422.578 149.993L424.272 160.574L420.43 169.767C418.315 174.827 411.915 185.465 406.206 193.41L395.828 207.858L385.794 212.885L375.759 217.915L343.329 219.578L310.899 221.245L309.327 218.698C308.46 217.297 300.527 213.519 291.699 210.296L275.643 204.444L266.184 188.809L256.725 173.177V150.566V127.958L252.235 122.804C245.306 114.848 241.5 106.242 241.5 98.5321V91.5091L248.274 76.1925L255.048 60.8759L262.295 58.1188C266.281 56.6046 272.894 55.3644 276.991 55.3644H284.441L287.826 47.7158L291.212 40.0672L302.896 32.4906C316.394 23.7374 319.126 23.3997 330.174 29.1133ZM98.9362 71.0187C94.3687 73.416 86.0363 79.7719 80.4223 85.1422L70.2131 94.9085L64.3196 108.606L58.4288 122.3L61.4378 130.929C63.0905 135.673 67.1376 142.422 70.4263 145.924L76.4056 152.291L76.6022 165.808L76.7987 179.326L86.3519 192.63L95.9078 205.934L95.2711 222.042L94.6344 238.153L97.8096 244.337C99.5563 247.739 104.882 254.704 109.649 259.812L118.314 269.102L105.857 267.231C87.6253 264.496 75.9876 260.578 57.9305 251.097L41.8416 242.649L29.7057 229.151L17.5726 215.653L11.6153 199.871L5.65811 184.087L6.85398 163.325L8.05262 142.564L14.4472 130.106C23.9422 111.609 32.9722 100.797 48.3663 89.4966L62.1714 79.3621L79.1683 73.0451C88.5194 69.5682 98.6594 66.7114 101.704 66.692L107.241 66.6588L98.9362 71.0187ZM141.844 72.1066V77.7732L148.966 84.3754L156.092 90.9776L157.991 104.315L159.893 117.649L169.432 119.034L178.971 120.418L183.863 134.259L188.757 148.1L196.588 155.184L204.417 162.268L202.781 191.738C201.881 207.949 200.572 221.737 199.868 222.38C199.168 223.019 193.455 226.136 187.176 229.3L175.76 235.055L168.217 244.019C164.07 248.946 159.585 255.853 158.248 259.366L155.823 265.75H144.57H133.318L122.635 260.299L111.952 254.848L105.835 244.952L99.7196 235.058L99.9106 228.949C100.016 225.591 100.359 218.842 100.672 213.956L101.242 205.067L90.7783 188.112L80.3116 171.157L82.0805 160.081L83.8522 149.008L76.6548 143.347C72.6962 140.233 68.256 134.53 66.7916 130.674L64.1258 123.665L71.5031 108.586L78.8804 93.5078L91.0911 84.8156L103.302 76.1261L117.73 71.4506C125.663 68.8789 134.334 66.7003 136.999 66.6062L141.844 66.4373V72.1066ZM266.143 196.541L275.109 210.377L282.528 211.88C286.605 212.705 294.927 215.825 301.017 218.812L312.09 224.243L330.603 224.234L349.117 224.226L366.59 228.268C376.202 230.491 397.143 233.572 413.13 235.116C446.083 238.297 458.689 241.386 466.108 248.102L471.263 252.767V259.012V265.257L463.044 272.172L454.825 279.09L441.59 283.3C434.31 285.617 422.749 288.371 415.898 289.415C369.89 296.441 380.492 311.212 442.697 326.756L473.649 334.49L491.803 343.155L509.96 351.819L512.969 357.444L515.98 363.069L514.519 366.881C513.713 368.977 507.861 373.342 501.514 376.581L489.97 382.469L460.547 389.01C444.364 392.609 413.061 397.611 390.984 400.127L350.845 404.703L303.785 404.767L256.725 404.831L246.38 400.321L236.033 395.812L228.929 381.788L221.823 367.767L212.976 364.085L204.129 360.403L162.605 357.273C114.61 353.652 91.2682 349.984 80.367 344.348L72.6381 340.35V336.796C72.6381 330.46 79.7746 323.251 94.759 314.451C102.834 309.712 110.815 303.635 112.495 300.953L115.546 296.073L100.32 282.279L85.0951 268.485L93.3998 270.467C97.9674 271.557 113.613 272.498 128.166 272.559L154.627 272.67L160.001 286.448L165.374 300.225L180.599 307.957L195.824 315.688L212.433 318.385C234.466 321.961 269.822 321.831 290.016 318.099L306.332 315.082L319.691 308.311L333.051 301.543L338.476 292.643L343.905 283.743L343.913 274.608L343.924 265.475L340.018 257.998C337.87 253.888 332.577 247.172 328.253 243.078L320.394 235.631L301.327 226.72L282.259 217.809L255.651 216.611L229.043 215.412L217.018 218.2L204.99 220.987L206.598 214.994C207.481 211.697 208.223 203.783 208.242 197.402L208.281 185.806L218.662 184.718C224.373 184.123 235.374 183.425 243.111 183.168L257.176 182.703L266.143 196.541ZM269.91 221.333L285.863 223.947L302.47 231.401L319.077 238.853L328.66 249.464L338.247 260.075L340.032 267.183L341.818 274.292L337.928 284.51L334.039 294.727L324.948 300.853L315.857 306.982L295.068 311.605L274.278 316.231L240.586 314.938L206.897 313.643L191.043 307.514L175.19 301.385L169.529 294.19C166.417 290.234 163.137 284.075 162.24 280.507L160.612 274.018L162.412 264.429L164.211 254.84L171.148 246.593L178.085 238.35L193.006 231.291L207.927 224.232L222.637 221.785C243 218.396 251.477 218.316 269.91 221.333ZM275.311 269.055L275.078 277.202L278.699 274.195L282.323 271.189L286.824 272.919L291.328 274.647V271.745C291.328 270.151 290.063 268.061 288.515 267.106C286.968 266.148 286.323 264.363 287.079 263.136L288.46 260.905H281.999H275.541L275.311 269.055ZM223.581 265.628L221.945 268.277L217.4 266.533L212.857 264.789L214.72 269.647C215.747 272.321 216.586 275.496 216.586 276.703V278.899H223.044H229.505V270.94V262.981H227.36C226.18 262.981 224.481 264.172 223.581 265.628ZM242.726 294.589L237.356 298.514L239.191 300.35L241.026 302.185L247.092 298.938L253.157 295.693L263.244 297.393L273.334 299.093L267.961 294.88L262.588 290.664H255.341H248.094L242.726 294.589Z" fill="#7E7E7E"/>
</svg>
