<svg width="26" height="26" viewBox="0 0 26 26" fill="none" xmlns="http://www.w3.org/2000/svg">
    <path
        d="M10.0218 23C9.64911 23 9.35545 22.8983 9.14085 22.695C8.92625 22.4917 8.82178 22.2122 8.82742 21.8564L8.99684 12.2588C8.99684 12.0894 8.96578 11.951 8.90366 11.8437C8.84154 11.7308 8.73989 11.6432 8.59871 11.5811C8.21469 11.4117 7.89844 11.2253 7.64996 11.022C7.40712 10.8131 7.23205 10.5476 7.12475 10.2258C7.0231 9.89821 6.98357 9.47183 7.00616 8.94663L7.24335 3.76239C7.25464 3.56473 7.31394 3.40943 7.42124 3.29648C7.53419 3.18354 7.68384 3.12706 7.8702 3.12706C8.05092 3.12706 8.18928 3.18636 8.28528 3.30496C8.38693 3.4179 8.43776 3.57603 8.43776 3.77933L8.37846 8.81957C8.37281 9.14711 8.52811 9.31089 8.84436 9.31089C8.9912 9.31089 9.10979 9.26853 9.20015 9.18382C9.2905 9.09911 9.33568 8.98334 9.33568 8.83651L9.42886 3.61838C9.42886 3.42637 9.48251 3.27672 9.58981 3.16942C9.69711 3.05647 9.84112 3 10.0218 3C10.2082 3 10.355 3.05647 10.4623 3.16942C10.5696 3.27672 10.6261 3.42637 10.6317 3.61838L10.7165 8.83651C10.7165 8.98334 10.7616 9.09911 10.852 9.18382C10.9423 9.26853 11.0609 9.31089 11.2078 9.31089C11.3433 9.31089 11.4534 9.26853 11.5381 9.18382C11.6285 9.09346 11.6737 8.97205 11.6737 8.81957L11.6059 3.77933C11.6059 3.57603 11.6567 3.4179 11.7584 3.30496C11.86 3.18636 12.0012 3.12706 12.1819 3.12706C12.5772 3.12706 12.7834 3.33884 12.8003 3.76239L13.046 8.94663C13.0629 9.47183 13.0177 9.89821 12.9104 10.2258C12.8088 10.5476 12.6337 10.8131 12.3852 11.022C12.1424 11.2253 11.829 11.4117 11.445 11.5811C11.3094 11.6432 11.2078 11.7308 11.14 11.8437C11.0779 11.951 11.0468 12.0894 11.0468 12.2588L11.2247 21.8564C11.2247 22.2122 11.1174 22.4917 10.9028 22.695C10.6882 22.8983 10.3946 23 10.0218 23ZM16.7647 15.5032C16.7704 15.3394 16.7393 15.1982 16.6716 15.0796C16.6038 14.9554 16.4937 14.8396 16.3412 14.7323L15.8838 14.4274C15.6522 14.2692 15.48 14.0829 15.367 13.8683C15.2597 13.648 15.2061 13.3854 15.2061 13.0805V12.623C15.2061 11.7816 15.2625 10.9288 15.3755 10.0648C15.4884 9.20076 15.6494 8.36496 15.8583 7.55739C16.0673 6.74982 16.313 6.0072 16.5953 5.32952C16.8777 4.6462 17.1911 4.0617 17.5356 3.57603C17.6824 3.37272 17.8151 3.22589 17.9337 3.13554C18.058 3.04518 18.202 3 18.3658 3C18.5352 3 18.682 3.05647 18.8062 3.16942C18.9361 3.27672 19.0011 3.44049 19.0011 3.66074V21.8988C19.0011 22.2489 18.891 22.52 18.6707 22.712C18.4561 22.904 18.1625 23 17.7897 23C17.417 23 17.1205 22.8983 16.9003 22.695C16.6857 22.4917 16.584 22.2009 16.5953 21.8225L16.7647 15.5032Z"
        fill="#218759" />
</svg>